# MagicaVoxel @ ephtracy

# material
mtllib SwaiftBall_BG.mtl
usemtl palette

# normals
vn -1 0 0
vn 1 0 0
vn 0 0 1
vn 0 0 -1
vn 0 -1 0
vn 0 1 0

# texcoords
vt 0.00195313 0.5
vt 0.142578 0.5
vt 0.283203 0.5
vt 0.396484 0.5
vt 0.423828 0.5
vt 0.447266 0.5
vt 0.470703 0.5
vt 0.724609 0.5
vt 0.841797 0.5
vt 0.884766 0.5
vt 0.888672 0.5
vt 0.892578 0.5
vt 0.896484 0.5
vt 0.900391 0.5
vt 0.908203 0.5
vt 0.958984 0.5

# verts
v -35 0 63
v -35 0 -63
v -35 1 63
v -35 1 24
v -35 1 9
v -35 1 -11
v -35 1 -24
v -35 1 -40
v -35 1 -63
v -35 2 63
v -35 2 25
v -35 2 24
v -35 2 18
v -35 2 9
v -35 3 63
v -35 3 27
v -35 3 25
v -35 3 18
v -35 3 7
v -35 3 -11
v -35 4 63
v -35 4 31
v -35 4 27
v -35 4 7
v -35 4 -4
v -35 4 -24
v -35 5 63
v -35 5 37
v -35 5 31
v -35 5 -4
v -35 5 -19
v -35 5 -40
v -35 6 63
v -35 6 43
v -35 6 37
v -35 6 -19
v -35 6 -32
v -35 6 -63
v -35 7 63
v -35 7 51
v -35 7 43
v -35 7 -32
v -35 7 -63
v -35 8 63
v -35 8 51
v -32 7 35
v -32 7 33
v -32 7 -29
v -32 12 35
v -32 12 33
v -32 12 -29
v 30 10 33
v 30 10 -27
v 30 12 33
v 30 12 -27
v -30 10 33
v -30 10 -27
v -30 12 33
v -30 12 -27
v 32 7 35
v 32 7 33
v 32 7 -29
v 32 12 35
v 32 12 33
v 32 12 -29
v 35 0 63
v 35 0 -63
v 35 1 63
v 35 1 24
v 35 1 9
v 35 1 -11
v 35 1 -24
v 35 1 -40
v 35 1 -63
v 35 2 63
v 35 2 25
v 35 2 24
v 35 2 18
v 35 2 9
v 35 3 63
v 35 3 27
v 35 3 25
v 35 3 18
v 35 3 7
v 35 3 -11
v 35 4 63
v 35 4 31
v 35 4 27
v 35 4 7
v 35 4 -4
v 35 4 -24
v 35 5 63
v 35 5 37
v 35 5 31
v 35 5 -4
v 35 5 -19
v 35 5 -40
v 35 6 63
v 35 6 43
v 35 6 37
v 35 6 -19
v 35 6 -32
v 35 6 -63
v 35 7 63
v 35 7 51
v 35 7 43
v 35 7 -32
v 35 7 -63
v 35 8 63
v 35 8 51
v -35 0 63
v -35 1 63
v -35 2 63
v -35 3 63
v -35 4 63
v -35 5 63
v -35 6 63
v -35 7 63
v -35 8 63
v 35 0 63
v 35 1 63
v 35 2 63
v 35 3 63
v 35 4 63
v 35 5 63
v 35 6 63
v 35 7 63
v 35 8 63
v -32 7 35
v -32 12 35
v 32 7 35
v 32 12 35
v -35 2 18
v -35 3 18
v 35 2 18
v 35 3 18
v -35 3 7
v -35 4 7
v 35 3 7
v 35 4 7
v -35 4 -4
v -35 5 -4
v 35 4 -4
v 35 5 -4
v -35 5 -19
v -35 6 -19
v 35 5 -19
v 35 6 -19
v -30 10 -27
v -30 12 -27
v 30 10 -27
v 30 12 -27
v -35 6 -32
v -35 7 -32
v 35 6 -32
v 35 7 -32
v -35 7 51
v -35 8 51
v 35 7 51
v 35 8 51
v -35 6 43
v -35 7 43
v 35 6 43
v 35 7 43
v -35 5 37
v -35 6 37
v 35 5 37
v 35 6 37
v -30 10 33
v -30 12 33
v 30 10 33
v 30 12 33
v -35 4 31
v -35 5 31
v 35 4 31
v 35 5 31
v -35 3 27
v -35 4 27
v 35 3 27
v 35 4 27
v -35 2 25
v -35 3 25
v 35 2 25
v 35 3 25
v -32 7 -29
v -32 12 -29
v 32 7 -29
v 32 12 -29
v -35 0 -63
v -35 1 -63
v -35 6 -63
v -35 7 -63
v 35 0 -63
v 35 1 -63
v 35 6 -63
v 35 7 -63
v -35 0 63
v 35 0 63
v -35 0 -63
v 35 0 -63
v -32 7 35
v 32 7 35
v -31 7 34
v 23 7 34
v 30 7 34
v 31 7 34
v -32 7 33
v -31 7 33
v -30 7 33
v 23 7 33
v 31 7 33
v 32 7 33
v -30 7 -27
v 30 7 -27
v -32 7 -29
v 32 7 -29
v -35 2 25
v 35 2 25
v -35 2 24
v 35 2 24
v -35 2 18
v 35 2 18
v -35 3 27
v 35 3 27
v -35 3 25
v 35 3 25
v -35 3 18
v 35 3 18
v -35 3 7
v 35 3 7
v -35 4 31
v 35 4 31
v -35 4 27
v 35 4 27
v -35 4 7
v 35 4 7
v -35 4 -4
v 35 4 -4
v -35 5 37
v 35 5 37
v -35 5 31
v 35 5 31
v -35 5 -4
v 35 5 -4
v -35 5 -19
v 35 5 -19
v -35 6 43
v 35 6 43
v -35 6 37
v 35 6 37
v -35 6 -19
v 35 6 -19
v -35 6 -32
v 35 6 -32
v -35 7 51
v 35 7 51
v -35 7 43
v 35 7 43
v -35 7 -32
v 35 7 -32
v -35 7 -63
v 35 7 -63
v -35 8 63
v 35 8 63
v -35 8 51
v 35 8 51
v -30 10 33
v 30 10 33
v -30 10 -27
v 30 10 -27
v -32 12 35
v 32 12 35
v -32 12 33
v -30 12 33
v 30 12 33
v 32 12 33
v -30 12 -27
v 30 12 -27
v -32 12 -29
v 32 12 -29

# faces
f 3/16/1 2/16/1 1/16/1
f 4/16/1 2/16/1 3/16/1
f 5/16/1 2/16/1 4/16/1
f 6/16/1 2/16/1 5/16/1
f 7/16/1 2/16/1 6/16/1
f 8/16/1 2/16/1 7/16/1
f 9/16/1 2/16/1 8/16/1
f 10/15/1 4/15/1 3/15/1
f 11/15/1 4/15/1 10/15/1
f 12/1/1 5/1/1 4/1/1
f 12/15/1 4/15/1 11/15/1
f 13/1/1 5/1/1 12/1/1
f 14/2/1 6/2/1 5/2/1
f 14/1/1 5/1/1 13/1/1
f 15/14/1 11/14/1 10/14/1
f 16/14/1 11/14/1 15/14/1
f 17/14/1 11/14/1 16/14/1
f 18/2/1 14/2/1 13/2/1
f 19/2/1 6/2/1 14/2/1
f 19/2/1 14/2/1 18/2/1
f 20/3/1 7/3/1 6/3/1
f 20/2/1 6/2/1 19/2/1
f 21/13/1 16/13/1 15/13/1
f 22/13/1 16/13/1 21/13/1
f 23/13/1 16/13/1 22/13/1
f 24/3/1 20/3/1 19/3/1
f 25/3/1 20/3/1 24/3/1
f 26/3/1 7/3/1 20/3/1
f 26/3/1 20/3/1 25/3/1
f 26/5/1 8/5/1 7/5/1
f 27/12/1 22/12/1 21/12/1
f 28/12/1 22/12/1 27/12/1
f 29/12/1 22/12/1 28/12/1
f 30/5/1 26/5/1 25/5/1
f 31/5/1 26/5/1 30/5/1
f 32/5/1 8/5/1 26/5/1
f 32/5/1 26/5/1 31/5/1
f 32/6/1 9/6/1 8/6/1
f 33/11/1 28/11/1 27/11/1
f 34/11/1 28/11/1 33/11/1
f 35/11/1 28/11/1 34/11/1
f 36/6/1 32/6/1 31/6/1
f 37/6/1 32/6/1 36/6/1
f 38/6/1 9/6/1 32/6/1
f 38/6/1 32/6/1 37/6/1
f 39/10/1 34/10/1 33/10/1
f 40/10/1 34/10/1 39/10/1
f 41/10/1 34/10/1 40/10/1
f 42/7/1 38/7/1 37/7/1
f 43/7/1 38/7/1 42/7/1
f 44/8/1 40/8/1 39/8/1
f 45/8/1 40/8/1 44/8/1
f 49/4/1 47/4/1 46/4/1
f 50/9/1 48/9/1 47/9/1
f 50/4/1 47/4/1 49/4/1
f 51/9/1 48/9/1 50/9/1
f 54/9/1 53/9/1 52/9/1
f 55/9/1 53/9/1 54/9/1
f 56/9/2 57/9/2 58/9/2
f 58/9/2 57/9/2 59/9/2
f 60/4/2 61/4/2 63/4/2
f 61/9/2 62/9/2 64/9/2
f 63/4/2 61/4/2 64/4/2
f 64/9/2 62/9/2 65/9/2
f 66/16/2 67/16/2 68/16/2
f 68/16/2 67/16/2 69/16/2
f 69/16/2 67/16/2 70/16/2
f 70/16/2 67/16/2 71/16/2
f 71/16/2 67/16/2 72/16/2
f 72/16/2 67/16/2 73/16/2
f 73/16/2 67/16/2 74/16/2
f 68/15/2 69/15/2 75/15/2
f 75/15/2 69/15/2 76/15/2
f 69/1/2 70/1/2 77/1/2
f 76/15/2 69/15/2 77/15/2
f 77/1/2 70/1/2 78/1/2
f 70/2/2 71/2/2 79/2/2
f 78/1/2 70/1/2 79/1/2
f 75/14/2 76/14/2 80/14/2
f 80/14/2 76/14/2 81/14/2
f 81/14/2 76/14/2 82/14/2
f 78/2/2 79/2/2 83/2/2
f 79/2/2 71/2/2 84/2/2
f 83/2/2 79/2/2 84/2/2
f 71/3/2 72/3/2 85/3/2
f 84/2/2 71/2/2 85/2/2
f 80/13/2 81/13/2 86/13/2
f 86/13/2 81/13/2 87/13/2
f 87/13/2 81/13/2 88/13/2
f 84/3/2 85/3/2 89/3/2
f 89/3/2 85/3/2 90/3/2
f 85/3/2 72/3/2 91/3/2
f 90/3/2 85/3/2 91/3/2
f 72/5/2 73/5/2 91/5/2
f 86/12/2 87/12/2 92/12/2
f 92/12/2 87/12/2 93/12/2
f 93/12/2 87/12/2 94/12/2
f 90/5/2 91/5/2 95/5/2
f 95/5/2 91/5/2 96/5/2
f 91/5/2 73/5/2 97/5/2
f 96/5/2 91/5/2 97/5/2
f 73/6/2 74/6/2 97/6/2
f 92/11/2 93/11/2 98/11/2
f 98/11/2 93/11/2 99/11/2
f 99/11/2 93/11/2 100/11/2
f 96/6/2 97/6/2 101/6/2
f 101/6/2 97/6/2 102/6/2
f 97/6/2 74/6/2 103/6/2
f 102/6/2 97/6/2 103/6/2
f 98/10/2 99/10/2 104/10/2
f 104/10/2 99/10/2 105/10/2
f 105/10/2 99/10/2 106/10/2
f 102/7/2 103/7/2 107/7/2
f 107/7/2 103/7/2 108/7/2
f 104/8/2 105/8/2 109/8/2
f 109/8/2 105/8/2 110/8/2
f 120/16/3 112/16/3 111/16/3
f 121/15/3 113/15/3 112/15/3
f 121/16/3 112/16/3 120/16/3
f 122/14/3 114/14/3 113/14/3
f 122/15/3 113/15/3 121/15/3
f 123/13/3 115/13/3 114/13/3
f 123/14/3 114/14/3 122/14/3
f 124/12/3 116/12/3 115/12/3
f 124/13/3 115/13/3 123/13/3
f 125/11/3 117/11/3 116/11/3
f 125/12/3 116/12/3 124/12/3
f 126/10/3 118/10/3 117/10/3
f 126/11/3 117/11/3 125/11/3
f 127/8/3 119/8/3 118/8/3
f 127/10/3 118/10/3 126/10/3
f 128/8/3 119/8/3 127/8/3
f 131/4/3 130/4/3 129/4/3
f 132/4/3 130/4/3 131/4/3
f 135/2/3 134/2/3 133/2/3
f 136/2/3 134/2/3 135/2/3
f 139/3/3 138/3/3 137/3/3
f 140/3/3 138/3/3 139/3/3
f 143/5/3 142/5/3 141/5/3
f 144/5/3 142/5/3 143/5/3
f 147/6/3 146/6/3 145/6/3
f 148/6/3 146/6/3 147/6/3
f 151/9/3 150/9/3 149/9/3
f 152/9/3 150/9/3 151/9/3
f 155/7/3 154/7/3 153/7/3
f 156/7/3 154/7/3 155/7/3
f 157/8/4 158/8/4 159/8/4
f 159/8/4 158/8/4 160/8/4
f 161/10/4 162/10/4 163/10/4
f 163/10/4 162/10/4 164/10/4
f 165/11/4 166/11/4 167/11/4
f 167/11/4 166/11/4 168/11/4
f 169/4/4 170/4/4 171/4/4
f 171/4/4 170/4/4 172/4/4
f 173/12/4 174/12/4 175/12/4
f 175/12/4 174/12/4 176/12/4
f 177/13/4 178/13/4 179/13/4
f 179/13/4 178/13/4 180/13/4
f 181/14/4 182/14/4 183/14/4
f 183/14/4 182/14/4 184/14/4
f 185/9/4 186/9/4 187/9/4
f 187/9/4 186/9/4 188/9/4
f 189/16/4 190/16/4 193/16/4
f 190/6/4 191/6/4 194/6/4
f 193/16/4 190/16/4 194/16/4
f 191/7/4 192/7/4 195/7/4
f 194/6/4 191/6/4 195/6/4
f 195/7/4 192/7/4 196/7/4
f 199/16/5 198/16/5 197/16/5
f 200/16/5 198/16/5 199/16/5
f 203/4/5 202/4/5 201/4/5
f 204/4/5 202/4/5 203/4/5
f 205/4/5 202/4/5 204/4/5
f 206/4/5 202/4/5 205/4/5
f 207/4/5 203/4/5 201/4/5
f 208/9/5 204/9/5 203/9/5
f 208/4/5 203/4/5 207/4/5
f 209/9/5 204/9/5 208/9/5
f 210/16/5 205/16/5 204/16/5
f 210/9/5 204/9/5 209/9/5
f 211/4/5 202/4/5 206/4/5
f 211/9/5 206/9/5 205/9/5
f 212/4/5 202/4/5 211/4/5
f 213/9/5 209/9/5 208/9/5
f 213/16/5 210/16/5 209/16/5
f 213/9/5 208/9/5 207/9/5
f 214/16/5 205/16/5 210/16/5
f 214/16/5 210/16/5 213/16/5
f 214/9/5 212/9/5 211/9/5
f 214/9/5 211/9/5 205/9/5
f 215/9/5 213/9/5 207/9/5
f 215/9/5 214/9/5 213/9/5
f 216/9/5 212/9/5 214/9/5
f 216/9/5 214/9/5 215/9/5
f 217/15/6 218/15/6 219/15/6
f 219/15/6 218/15/6 220/15/6
f 219/1/6 220/1/6 221/1/6
f 221/1/6 220/1/6 222/1/6
f 223/14/6 224/14/6 225/14/6
f 225/14/6 224/14/6 226/14/6
f 227/2/6 228/2/6 229/2/6
f 229/2/6 228/2/6 230/2/6
f 231/13/6 232/13/6 233/13/6
f 233/13/6 232/13/6 234/13/6
f 235/3/6 236/3/6 237/3/6
f 237/3/6 236/3/6 238/3/6
f 239/12/6 240/12/6 241/12/6
f 241/12/6 240/12/6 242/12/6
f 243/5/6 244/5/6 245/5/6
f 245/5/6 244/5/6 246/5/6
f 247/11/6 248/11/6 249/11/6
f 249/11/6 248/11/6 250/11/6
f 251/6/6 252/6/6 253/6/6
f 253/6/6 252/6/6 254/6/6
f 255/10/6 256/10/6 257/10/6
f 257/10/6 256/10/6 258/10/6
f 259/7/6 260/7/6 261/7/6
f 261/7/6 260/7/6 262/7/6
f 263/8/6 264/8/6 265/8/6
f 265/8/6 264/8/6 266/8/6
f 267/16/6 268/16/6 269/16/6
f 269/16/6 268/16/6 270/16/6
f 271/4/6 272/4/6 273/4/6
f 273/4/6 272/4/6 274/4/6
f 274/4/6 272/4/6 275/4/6
f 275/4/6 272/4/6 276/4/6
f 273/9/6 274/9/6 277/9/6
f 275/9/6 276/9/6 278/9/6
f 273/9/6 277/9/6 279/9/6
f 277/9/6 278/9/6 279/9/6
f 278/9/6 276/9/6 280/9/6
f 279/9/6 278/9/6 280/9/6
